<svg aria-hidden="true" height="16" viewBox="0 0 24 24" width="16" xmlns="http://www.w3.org/2000/svg"><path clip-rule="evenodd" d="M20.768 8.20699C20.7914 11.5932 19.4565 14.8475 17.062 17.242C14.6675 19.6365 11.4132 20.9713 8.027 20.948C5.58923 20.9544 3.20152 20.2564 1.151 18.938C1.50998 18.9771 1.87091 18.9955 2.232 18.993C4.24768 18.9984 6.20639 18.3245 7.792 17.08C5.87438 17.0472 4.18971 15.799 3.6 13.974C3.87982 14.0187 4.16264 14.0421 4.446 14.044C4.84354 14.0428 5.23935 13.9914 5.624 13.891C3.53637 13.4666 2.0367 11.6303 2.038 9.49999V9.44099C2.65835 9.78763 3.3519 9.98261 4.062 10.01C2.08979 8.6933 1.48225 6.06953 2.675 4.01999C4.94972 6.82015 8.30596 8.52335 11.909 8.70599C11.8375 8.36899 11.8009 8.0255 11.8 7.68099C11.8014 5.84293 12.9248 4.19202 14.6341 3.51624C16.3434 2.84045 18.2921 3.27679 19.55 4.61699C20.5522 4.4234 21.5131 4.0573 22.39 3.53499C22.0556 4.56892 21.3555 5.44537 20.421 5.99999C21.3102 5.89964 22.1795 5.66707 23 5.30999C22.3866 6.20227 21.6273 6.98488 20.754 7.62499C20.768 7.81999 20.768 8.01399 20.768 8.20699Z" fill="currentColor" fill-rule="evenodd"></path></svg>