<svg aria-hidden="true" height="16" viewBox="0 0 24 24" width="16" xmlns="http://www.w3.org/2000/svg"><path clip-rule="evenodd" d="M18 5H12.67C10.2937 4.99952 8.24527 6.67167 7.77 9H6C3.23858 9 1 11.2386 1 14C1 16.7614 3.23858 19 6 19H11.33C13.7063 19.0005 15.7547 17.3283 16.23 15H18C20.7614 15 23 12.7614 23 10C23 7.23858 20.7614 5 18 5ZM11.33 17H6C4.34315 17 3 15.6569 3 14C3 12.3431 4.34315 11 6 11H7.77C8.24527 13.3283 10.2937 15.0005 12.67 15H14.15C13.7273 16.1957 12.5983 16.9964 11.33 17ZM9.85 11H11.33C12.5983 11.0036 13.7273 11.8043 14.15 13H12.67C11.4017 12.9964 10.2727 12.1957 9.85 11ZM18 13H16.23C15.7547 10.6717 13.7063 8.99952 11.33 9H9.85C10.2727 7.80427 11.4017 7.00356 12.67 7H18C19.6569 7 21 8.34315 21 10C21 11.6569 19.6569 13 18 13Z" fill="currentColor" fill-rule="evenodd"></path></svg>